<svg width="20" height="14" viewBox="0 0 20 14" fill="none" xmlns="http://www.w3.org/2000/svg">
<path d="M19.9805 5.1748C19.9805 6.74512 19.585 7.97266 18.7939 8.85742C18.0029 9.73633 16.9102 10.1758 15.5156 10.1758C14.6543 10.1758 13.8896 9.97363 13.2217 9.56934C12.5537 9.16504 12.0381 8.58496 11.6748 7.8291C11.3115 7.07324 11.1299 6.18848 11.1299 5.1748C11.1299 3.60449 11.5225 2.38281 12.3076 1.50977C13.0928 0.630859 14.1826 0.191406 15.5771 0.191406C16.9248 0.191406 17.9941 0.639648 18.7852 1.53613C19.582 2.43262 19.9805 3.64551 19.9805 5.1748ZM12.6416 5.1748C12.6416 6.40527 12.8877 7.34277 13.3799 7.9873C13.8721 8.63184 14.5957 8.9541 15.5508 8.9541C16.5059 8.9541 17.2295 8.63477 17.7217 7.99609C18.2197 7.35156 18.4688 6.41113 18.4688 5.1748C18.4688 3.9502 18.2197 3.02148 17.7217 2.38867C17.2295 1.75 16.5 1.43066 15.5332 1.43066C14.5781 1.43066 13.8574 1.74414 13.3711 2.37109C12.8848 2.99805 12.6416 3.93262 12.6416 5.1748Z" fill="#A5A5A5"/>
<path d="M9.73242 13.3311H8.31738V10H1.58496V13.3311H0.178711V8.74316H0.93457C1.71973 7.67676 2.33496 6.42578 2.78027 4.99023C3.22559 3.55469 3.45703 2.01367 3.47461 0.367188H8.35254V8.74316H9.73242V13.3311ZM6.94629 8.74316V1.51855H4.78418C4.70801 2.81934 4.45605 4.1377 4.02832 5.47363C3.60645 6.80371 3.0791 7.89355 2.44629 8.74316H6.94629Z" fill="#A5A5A5"/>
</svg>
