<svg width="18" height="11" viewBox="0 0 18 11" fill="none" xmlns="http://www.w3.org/2000/svg">
<path d="M17.9229 1.61523H14.7939V10H13.335V1.61523H10.2412V0.367188H17.9229V1.61523Z" fill="#A5A5A5"/>
<path d="M8.86133 5.1748C8.86133 6.74512 8.46582 7.97266 7.6748 8.85742C6.88379 9.73633 5.79102 10.1758 4.39648 10.1758C3.53516 10.1758 2.77051 9.97363 2.10254 9.56934C1.43457 9.16504 0.918945 8.58496 0.555664 7.8291C0.192383 7.07324 0.0107422 6.18848 0.0107422 5.1748C0.0107422 3.60449 0.40332 2.38281 1.18848 1.50977C1.97363 0.630859 3.06348 0.191406 4.45801 0.191406C5.80566 0.191406 6.875 0.639648 7.66602 1.53613C8.46289 2.43262 8.86133 3.64551 8.86133 5.1748ZM1.52246 5.1748C1.52246 6.40527 1.76855 7.34277 2.26074 7.9873C2.75293 8.63184 3.47656 8.9541 4.43164 8.9541C5.38672 8.9541 6.11035 8.63477 6.60254 7.99609C7.10059 7.35156 7.34961 6.41113 7.34961 5.1748C7.34961 3.9502 7.10059 3.02148 6.60254 2.38867C6.11035 1.75 5.38086 1.43066 4.41406 1.43066C3.45898 1.43066 2.73828 1.74414 2.25195 2.37109C1.76562 2.99805 1.52246 3.93262 1.52246 5.1748Z" fill="#A5A5A5"/>
</svg>
