<svg width="9" height="17" viewBox="0 0 9 17" fill="none" xmlns="http://www.w3.org/2000/svg">
<path fill-rule="evenodd" clip-rule="evenodd" d="M8.80598 16.806C9.06467 16.5473 9.06467 16.1279 8.80598 15.8692L1.78 8.84319L8.80593 1.81727C9.06462 1.55858 9.06462 1.13916 8.80593 0.880466C8.54724 0.621776 8.12782 0.621776 7.86913 0.880466L0.378106 8.37148C0.376996 8.37258 0.37589 8.37368 0.374786 8.37478C0.358617 8.39095 0.343459 8.40774 0.329313 8.42509C0.315166 8.44244 0.302029 8.46033 0.289903 8.4787C0.120075 8.73582 0.148346 9.08529 0.374725 9.31166C0.377483 9.31442 0.380259 9.31715 0.383052 9.31985L7.86918 16.806C8.12787 17.0647 8.54729 17.0647 8.80598 16.806Z" fill="#669966"/>
</svg>
