<svg width="9" height="17" viewBox="0 0 9 17" fill="none" xmlns="http://www.w3.org/2000/svg">
<path fill-rule="evenodd" clip-rule="evenodd" d="M0.194018 0.194018C-0.0646725 0.452708 -0.0646729 0.872127 0.194017 1.13082L7.22 8.15681L0.194075 15.1827C-0.0646147 15.4414 -0.0646149 15.8608 0.194075 16.1195C0.452765 16.3782 0.872185 16.3782 1.13087 16.1195L8.62189 8.62852C8.623 8.62742 8.62411 8.62632 8.62521 8.62522C8.64138 8.60905 8.65654 8.59225 8.67069 8.57491C8.68483 8.55756 8.69797 8.53967 8.7101 8.5213C8.87993 8.26418 8.85165 7.91471 8.62528 7.68834C8.62252 7.68558 8.61974 7.68285 8.61695 7.68015L1.13082 0.194018C0.872128 -0.0646724 0.452708 -0.0646725 0.194018 0.194018Z" fill="#669966"/>
</svg>
